<svg xmlns="http://www.w3.org/2000/svg" width="800" height="600" viewBox="0 0 800 600">
  <!-- Background gradient -->
  <defs>
    <linearGradient id="bg-gradient" x1="0%" y1="0%" x2="100%" y2="100%">
      <stop offset="0%" stop-color="#0a0a1f" />
      <stop offset="100%" stop-color="#1a1a3f" />
    </linearGradient>
    <radialGradient id="quantum-glow" cx="50%" cy="50%" r="50%" fx="50%" fy="50%">
      <stop offset="0%" stop-color="#9900ff" stop-opacity="0.6" />
      <stop offset="100%" stop-color="#9900ff" stop-opacity="0" />
    </radialGradient>
    <linearGradient id="pulse-gradient" x1="0%" y1="0%" x2="100%" y2="100%">
      <stop offset="0%" stop-color="#9900ff" stop-opacity="0.8" />
      <stop offset="50%" stop-color="#ff00cc" stop-opacity="0.8" />
      <stop offset="100%" stop-color="#ff3366" stop-opacity="0.8" />
    </linearGradient>
  </defs>
  
  <!-- Background -->
  <rect width="800" height="600" fill="url(#bg-gradient)" />
  
  <!-- Digital Circuit Background -->
  <g stroke="#9900ff" stroke-width="1" opacity="0.15">
    <!-- Horizontal lines -->
    <line x1="0" y1="100" x2="800" y2="100" />
    <line x1="0" y1="200" x2="800" y2="200" />
    <line x1="0" y1="300" x2="800" y2="300" />
    <line x1="0" y1="400" x2="800" y2="400" />
    <line x1="0" y1="500" x2="800" y2="500" />
    
    <!-- Vertical lines -->
    <line x1="100" y1="0" x2="100" y2="600" />
    <line x1="200" y1="0" x2="200" y2="600" />
    <line x1="300" y1="0" x2="300" y2="600" />
    <line x1="400" y1="0" x2="400" y2="600" />
    <line x1="500" y1="0" x2="500" y2="600" />
    <line x1="600" y1="0" x2="600" y2="600" />
    <line x1="700" y1="0" x2="700" y2="600" />
  </g>
  
  <!-- Glow effect -->
  <circle cx="400" cy="300" r="200" fill="url(#quantum-glow)" opacity="0.7" />
  
  <!-- Central Quantum Core -->
  <g>
    <!-- Quantum Core -->
    <circle cx="400" cy="300" r="80" fill="url(#pulse-gradient)" opacity="0.6" />
    <circle cx="400" cy="300" r="80" fill="none" stroke="#9900ff" stroke-width="2" />
    
    <!-- Quantum Rings -->
    <circle cx="400" cy="300" r="120" fill="none" stroke="#9900ff" stroke-width="1" stroke-dasharray="10,5" />
    <circle cx="400" cy="300" r="160" fill="none" stroke="#9900ff" stroke-width="1" stroke-dasharray="5,10" />
    
    <!-- Quantum Particles -->
    <circle cx="400" cy="180" r="8" fill="#ff00cc" />
    <circle cx="400" cy="420" r="8" fill="#ff00cc" />
    <circle cx="280" cy="300" r="8" fill="#ff00cc" />
    <circle cx="520" cy="300" r="8" fill="#ff00cc" />
    
    <!-- Quantum Connections -->
    <line x1="400" y1="180" x2="280" y2="300" stroke="#ff00cc" stroke-width="2" opacity="0.6" />
    <line x1="280" y1="300" x2="400" y2="420" stroke="#ff00cc" stroke-width="2" opacity="0.6" />
    <line x1="400" y1="420" x2="520" y2="300" stroke="#ff00cc" stroke-width="2" opacity="0.6" />
    <line x1="520" y1="300" x2="400" y2="180" stroke="#ff00cc" stroke-width="2" opacity="0.6" />
    <line x1="400" y1="180" x2="400" y2="420" stroke="#ff00cc" stroke-width="2" opacity="0.4" />
    <line x1="280" y1="300" x2="520" y2="300" stroke="#ff00cc" stroke-width="2" opacity="0.4" />
  </g>
  
  <!-- Data Nodes -->
  <g>
    <!-- Node 1 -->
    <circle cx="200" cy="150" r="15" fill="#9900ff" opacity="0.8" />
    <circle cx="200" cy="150" r="15" fill="none" stroke="#ffffff" stroke-width="1" />
    
    <!-- Node 2 -->
    <circle cx="600" cy="150" r="15" fill="#9900ff" opacity="0.8" />
    <circle cx="600" cy="150" r="15" fill="none" stroke="#ffffff" stroke-width="1" />
    
    <!-- Node 3 -->
    <circle cx="200" cy="450" r="15" fill="#9900ff" opacity="0.8" />
    <circle cx="200" cy="450" r="15" fill="none" stroke="#ffffff" stroke-width="1" />
    
    <!-- Node 4 -->
    <circle cx="600" cy="450" r="15" fill="#9900ff" opacity="0.8" />
    <circle cx="600" cy="450" r="15" fill="none" stroke="#ffffff" stroke-width="1" />
    
    <!-- Node Connections -->
    <line x1="200" y1="150" x2="280" y2="300" stroke="#9900ff" stroke-width="2" opacity="0.6" />
    <line x1="600" y1="150" x2="520" y2="300" stroke="#9900ff" stroke-width="2" opacity="0.6" />
    <line x1="200" y1="450" x2="280" y2="300" stroke="#9900ff" stroke-width="2" opacity="0.6" />
    <line x1="600" y1="450" x2="520" y2="300" stroke="#9900ff" stroke-width="2" opacity="0.6" />
  </g>
  
  <!-- Data Flow Particles -->
  <g fill="#ff00cc">
    <circle cx="240" cy="225" r="3" opacity="0.8" />
    <circle cx="560" cy="225" r="3" opacity="0.8" />
    <circle cx="240" cy="375" r="3" opacity="0.8" />
    <circle cx="560" cy="375" r="3" opacity="0.8" />
    
    <circle cx="320" cy="240" r="2" opacity="0.6" />
    <circle cx="480" cy="240" r="2" opacity="0.6" />
    <circle cx="320" cy="360" r="2" opacity="0.6" />
    <circle cx="480" cy="360" r="2" opacity="0.6" />
    
    <circle cx="360" cy="220" r="1.5" opacity="0.7" />
    <circle cx="440" cy="220" r="1.5" opacity="0.7" />
    <circle cx="360" cy="380" r="1.5" opacity="0.7" />
    <circle cx="440" cy="380" r="1.5" opacity="0.7" />
  </g>
  
  <!-- Binary Data Streams -->
  <g fill="#ffffff" font-family="monospace" font-size="10" opacity="0.4">
    <text x="150" y="100">10110101</text>
    <text x="250" y="100">01001101</text>
    <text x="450" y="100">11010010</text>
    <text x="550" y="100">00101101</text>
    
    <text x="150" y="500">01101001</text>
    <text x="250" y="500">10010110</text>
    <text x="450" y="500">00110101</text>
    <text x="550" y="500">11001010</text>
  </g>
  
  <!-- Digital Circuit Patterns -->
  <g stroke="#9900ff" stroke-width="1" opacity="0.6" fill="none">
    <path d="M50 50 L100 50 L100 100 L150 100" />
    <path d="M650 50 L700 50 L700 100 L750 100" />
    <path d="M50 550 L100 550 L100 500 L150 500" />
    <path d="M650 550 L700 550 L700 500 L750 500" />
  </g>
  
  <!-- Title -->
  <text x="400" y="520" font-family="Arial, sans-serif" font-size="36" fill="#ffffff" text-anchor="middle" font-weight="bold">QUANTUM PULSE</text>
  <text x="400" y="550" font-family="Arial, sans-serif" font-size="20" fill="#9900ff" text-anchor="middle">AI SYSTEM</text>
</svg>